<svg width="175" height="184" viewBox="0 0 175 184" fill="none" xmlns="http://www.w3.org/2000/svg">
<path d="M147.368 131.376V82.7999L175 55.1999L138.158 18.4L110.526 45.9999H46.0526V36.7999H73.6842V0H0V36.7999H27.6316V91.9998H0V128.8H27.6316V174.8H67.0526C68.66 177.581 70.9679 179.893 73.7471 181.507C76.5263 183.121 79.68 183.98 82.8947 184C86.1329 184.019 89.319 183.186 92.1319 181.583C94.9448 179.981 97.2851 177.666 98.9169 174.872C100.549 172.078 101.414 168.904 101.426 165.669C101.439 162.435 100.597 159.254 98.9864 156.448C97.3757 153.642 95.053 151.31 92.2522 149.686C89.4515 148.062 86.2718 147.205 83.0335 147.2C79.7953 147.195 76.613 148.043 73.8073 149.658C71.0016 151.273 68.6718 153.599 67.0526 156.4H46.0526V128.8H73.6842V91.9998H46.0526V64.3999H110.526L128.947 82.7999V131.284C125.436 133.309 122.691 136.435 121.139 140.177C119.587 143.919 119.315 148.068 120.365 151.981C121.414 155.893 123.727 159.351 126.944 161.816C130.161 164.282 134.103 165.619 138.158 165.619C142.213 165.619 146.155 164.282 149.372 161.816C152.589 159.351 154.902 155.893 155.951 151.981C157.001 148.068 156.729 143.919 155.177 140.177C153.625 136.435 150.88 133.309 147.368 131.284V131.376ZM9.21053 27.6V9.19998H64.4737V27.6H9.21053ZM82.8947 156.4C84.7164 156.4 86.4972 156.939 88.0118 157.95C89.5265 158.961 90.707 160.398 91.4042 162.079C92.1013 163.76 92.2837 165.61 91.9283 167.395C91.5729 169.179 90.6957 170.818 89.4076 172.105C88.1194 173.392 86.4783 174.268 84.6916 174.623C82.9049 174.978 81.053 174.796 79.37 174.099C77.687 173.403 76.2485 172.224 75.2365 170.711C74.2244 169.198 73.6842 167.419 73.6842 165.6C73.6842 163.16 74.6546 160.82 76.3819 159.094C78.1092 157.369 80.4519 156.4 82.8947 156.4ZM64.4737 101.2V119.6H9.21053V101.2H64.4737ZM138.158 31.3719L162.013 55.1999L138.158 79.0279L114.303 55.1999L138.158 31.3719ZM138.158 156.4C136.336 156.4 134.555 155.86 133.041 154.849C131.526 153.838 130.346 152.401 129.648 150.72C128.951 149.039 128.769 147.19 129.124 145.405C129.48 143.62 130.357 141.981 131.645 140.694C132.933 139.408 134.574 138.531 136.361 138.177C138.148 137.822 140 138.004 141.683 138.7C143.366 139.396 144.804 140.576 145.816 142.088C146.828 143.601 147.368 145.38 147.368 147.2C147.368 149.64 146.398 151.98 144.671 153.705C142.943 155.43 140.601 156.4 138.158 156.4Z" fill="white"/>
</svg>
