<svg width="626" height="626" viewBox="0 0 626 626" fill="none" xmlns="http://www.w3.org/2000/svg">
<circle cx="313" cy="313" r="313" fill="url(#paint0_linear_126_67)"/>
<circle cx="313" cy="313" r="271" fill="url(#paint1_linear_126_67)"/>
<path d="M433.947 403.036V304.3L490 248.2L415.263 173.4L359.211 229.5H228.421V210.8H284.474V136H135V210.8H191.053V323H135V397.8H191.053V491.299H271.021C274.282 496.952 278.964 501.652 284.601 504.933C290.239 508.213 296.637 509.96 303.158 509.999C309.727 510.039 316.19 508.345 321.896 505.087C327.602 501.83 332.35 497.125 335.66 491.446C338.97 485.767 340.726 479.315 340.751 472.741C340.776 466.166 339.068 459.702 335.801 453.998C332.534 448.294 327.822 443.553 322.14 440.253C316.459 436.953 310.008 435.21 303.439 435.2C296.87 435.19 290.415 436.913 284.723 440.196C279.032 443.479 274.306 448.206 271.021 453.899H228.421V397.8H284.474V323H228.421V266.9H359.211L396.579 304.3V402.849C389.455 406.965 383.887 413.319 380.739 420.926C377.591 428.532 377.039 436.965 379.168 444.918C381.297 452.87 385.989 459.897 392.515 464.909C399.041 469.921 407.037 472.638 415.263 472.638C423.489 472.638 431.485 469.921 438.012 464.909C444.538 459.897 449.229 452.87 451.358 444.918C453.487 436.965 452.935 428.532 449.787 420.926C446.639 413.319 441.071 406.965 433.947 402.849V403.036ZM153.684 192.1V154.7H265.789V192.1H153.684ZM303.158 453.899C306.853 453.899 310.466 454.996 313.538 457.051C316.611 459.106 319.006 462.026 320.42 465.443C321.834 468.86 322.204 472.62 321.483 476.248C320.762 479.875 318.983 483.207 316.37 485.822C313.757 488.438 310.427 490.219 306.803 490.94C303.179 491.662 299.422 491.291 296.008 489.876C292.594 488.461 289.676 486.064 287.623 482.989C285.569 479.913 284.474 476.298 284.474 472.599C284.474 467.64 286.442 462.883 289.946 459.376C293.45 455.87 298.203 453.899 303.158 453.899ZM265.789 341.7V379.1H153.684V341.7H265.789ZM415.263 199.767L463.655 248.2L415.263 296.633L366.871 248.2L415.263 199.767ZM415.263 453.899C411.568 453.899 407.955 452.803 404.883 450.748C401.81 448.693 399.415 445.773 398.001 442.356C396.587 438.939 396.217 435.179 396.938 431.551C397.659 427.924 399.438 424.592 402.051 421.977C404.664 419.361 407.994 417.58 411.618 416.859C415.242 416.137 418.999 416.508 422.413 417.923C425.827 419.338 428.745 421.735 430.799 424.81C432.852 427.885 433.947 431.501 433.947 435.199C433.947 440.159 431.979 444.915 428.475 448.422C424.971 451.929 420.219 453.899 415.263 453.899Z" fill="white"/>
<defs>
<linearGradient id="paint0_linear_126_67" x1="565.5" y1="36" x2="112" y2="601" gradientUnits="userSpaceOnUse">
<stop stop-color="#02165F"/>
<stop offset="1" stop-color="#1435AE"/>
</linearGradient>
<linearGradient id="paint1_linear_126_67" x1="16.1905" y1="613.605" x2="612.466" y2="-16.451" gradientUnits="userSpaceOnUse">
<stop stop-color="#02165F"/>
<stop offset="1" stop-color="#1435AE"/>
</linearGradient>
</defs>
</svg>
